<svg width="2907" height="600" viewBox="0 0 2907 600" fill="none" xmlns="http://www.w3.org/2000/svg">
<g clip-path="url(#clip0_2544_28)">
<g clip-path="url(#clip1_2544_28)">
<g filter="url(#filter0_d_2544_28)">
<path d="M3.98745 592.35C4.03747 592.102 4.10123 591.861 4.17913 591.63C4.25508 591.405 4.34097 591.2 4.43513 591.017C3.1686 591.047 2.2874 591.406 1.93921 591.946L1.8983 592.015C1.75356 592.28 1.73184 592.585 1.84926 592.913C2.30268 592.582 3.03619 592.373 3.98759 592.35H3.98745Z" fill="#E11D48"/>
</g>
<g filter="url(#filter1_d_2544_28)">
<path d="M8.15221 595.779C8.10247 596.021 8.0397 596.256 7.96389 596.481C7.88599 596.711 7.79785 596.921 7.70117 597.108C8.97554 597.082 9.86361 596.724 10.2166 596.185L10.3764 595.917C10.45 595.781 10.5408 595.574 10.6488 595.295C10.7483 594.984 10.7567 594.931 10.8226 594.521L10.8331 594.409C10.7448 595.191 9.75306 595.746 8.15235 595.779H8.15221Z" fill="#E11D48"/>
</g>
<g filter="url(#filter2_d_2544_28)">
<path d="M5.18007 594.277C5.05173 594.592 4.9287 594.908 4.81423 595.216C3.56942 594.802 2.49374 594.156 1.95428 593.424C1.57429 592.908 1.51824 592.427 1.73318 592.034L1.62767 592.212C1.55462 592.347 1.46387 592.554 1.35542 592.834C1.31619 592.955 1.27513 593.119 1.24263 593.241C1.21222 593.403 1.18378 593.621 1.16556 593.784C1.14595 594.082 1.25524 594.411 1.50899 594.755C2.04788 595.487 3.12245 596.131 4.36613 596.546C4.29313 596.793 4.2368 597.009 4.19729 597.193C5.77235 597.059 6.75472 596.636 7.28254 596.409C6.01349 595.447 5.47138 594.686 5.18007 594.277Z" fill="#E11D48"/>
</g>
<g filter="url(#filter3_d_2544_28)">
<path d="M6.74991 593.74C6.87937 593.425 7.00324 593.11 7.11841 592.801C8.35145 593.216 9.41536 593.857 9.95061 594.583C10.0762 594.754 10.1663 594.92 10.2229 595.081C10.5282 594.86 10.7079 594.583 10.7433 594.271L10.747 594.23C10.7688 593.931 10.6596 593.599 10.4038 593.252C9.86794 592.525 8.80305 591.883 7.56889 591.468C7.64217 591.219 7.69836 591.001 7.73773 590.816C6.91468 590.892 5.90444 591.045 4.65234 591.6C5.34298 592.133 6.07496 592.761 6.74977 593.739L6.74991 593.74Z" fill="#E11D48"/>
</g>
</g>
<g filter="url(#filter4_d_2544_28)">
<path d="M909.345 489C895.837 460.336 882.493 430.683 869.314 400.042C856.464 369.071 843.944 338.265 831.754 307.624C819.892 276.982 808.855 247.989 798.641 220.642C788.757 192.966 780.191 168.256 772.942 146.51H857.947C864.536 166.279 871.62 187.53 879.198 210.264C887.105 232.998 895.013 255.896 902.92 278.959C910.828 302.023 918.57 323.933 926.148 344.69C934.056 365.117 941.304 382.909 947.894 398.065C954.154 382.909 961.073 365.117 968.651 344.69C976.558 323.933 984.465 302.023 992.373 278.959C1000.61 255.896 1008.52 232.998 1016.1 210.264C1024 187.53 1031.25 166.279 1037.84 146.51H1119.88C1112.3 168.256 1103.41 192.966 1093.19 220.642C1083.31 247.989 1072.44 276.982 1060.57 307.624C1048.71 337.935 1036.19 368.577 1023.01 399.547C1010.16 430.518 996.986 460.336 983.477 489H909.345ZM1292.2 495.919C1261.89 495.919 1237.34 492.954 1218.56 487.023C1200.11 480.763 1186.44 474.997 1177.54 469.726L1199.29 408.443C1209.5 414.044 1222.02 419.151 1236.85 423.764C1252.01 428.047 1270.46 430.189 1292.2 430.189C1313.95 430.189 1328.61 426.894 1336.19 420.304C1343.76 413.385 1347.55 404.819 1347.55 394.605C1347.55 387.027 1345.25 380.438 1340.63 374.837C1336.02 369.236 1328.61 363.964 1318.4 359.022C1308.18 353.75 1294.51 348.314 1277.38 342.713C1262.55 337.441 1247.89 331.016 1233.39 323.439C1218.89 315.531 1206.87 305.153 1197.31 292.303C1188.09 279.454 1183.48 262.486 1183.48 241.399C1183.48 220.313 1188.58 202.192 1198.8 187.036C1209.34 171.55 1224 159.689 1242.78 151.452C1261.56 142.886 1283.8 138.603 1309.5 138.603C1332.56 138.603 1352.5 141.074 1369.3 146.016C1386.1 150.958 1399.94 156.394 1410.81 162.325L1388.57 223.113C1379.02 218.171 1368.31 213.888 1356.45 210.264C1344.92 206.31 1330.92 204.333 1314.44 204.333C1295.99 204.333 1282.65 206.969 1274.41 212.241C1266.5 217.183 1262.55 224.925 1262.55 235.469C1262.55 243.376 1265.19 249.965 1270.46 255.237C1275.73 260.509 1282.81 265.121 1291.71 269.075C1300.6 273.029 1310.65 276.982 1321.85 280.936C1345.58 289.503 1365.18 298.398 1380.67 307.624C1396.15 316.849 1407.68 328.216 1415.26 341.724C1423.17 355.233 1427.12 373.025 1427.12 395.099C1427.12 416.186 1422.18 434.307 1412.3 449.463C1402.41 464.619 1387.42 476.15 1367.32 484.058C1347.55 491.965 1322.51 495.919 1292.2 495.919ZM1486.44 489C1503.58 439.908 1519.56 395.429 1534.38 355.562C1549.54 315.696 1564.2 278.795 1578.37 244.859C1592.86 210.923 1607.69 178.14 1622.85 146.51H1696.48C1707.69 170.232 1718.72 194.614 1729.6 219.654C1740.47 244.694 1751.34 271.052 1762.21 298.728C1773.09 326.074 1784.29 355.398 1795.82 386.698C1807.68 417.998 1820.04 452.099 1832.89 489H1750.35C1746.73 477.139 1742.61 464.948 1738 452.428C1733.71 439.908 1729.43 427.388 1725.15 414.868H1591.71C1587.43 427.388 1582.98 439.908 1578.37 452.428C1574.08 464.948 1570.13 477.139 1566.51 489H1486.44ZM1609.5 353.586H1706.86C1701.59 338.759 1696.48 324.592 1691.54 311.083C1686.6 297.575 1681.82 285.219 1677.21 274.017C1672.93 262.815 1669.14 252.931 1665.84 244.364C1662.55 235.798 1659.91 229.044 1657.94 224.102C1656.29 229.044 1653.82 235.798 1650.52 244.364C1647.56 252.931 1643.77 262.815 1639.16 274.017C1634.87 285.219 1630.09 297.575 1624.82 311.083C1619.88 324.592 1614.77 338.759 1609.5 353.586ZM1911.81 489V146.51H1988.91V489H1911.81Z" fill="black"/>
</g>
</g>
<defs>
<filter id="filter0_d_2544_28" x="-21.4521" y="591.017" width="49.113" height="48.3481" filterUnits="userSpaceOnUse" color-interpolation-filters="sRGB">
<feFlood flood-opacity="0" result="BackgroundImageFix"/>
<feColorMatrix in="SourceAlpha" type="matrix" values="0 0 0 0 0 0 0 0 0 0 0 0 0 0 0 0 0 0 127 0" result="hardAlpha"/>
<feOffset dy="23.2258"/>
<feGaussianBlur stdDeviation="11.6129"/>
<feComposite in2="hardAlpha" operator="out"/>
<feColorMatrix type="matrix" values="0 0 0 0 0 0 0 0 0 0 0 0 0 0 0 0 0 0 0.25 0"/>
<feBlend mode="normal" in2="BackgroundImageFix" result="effect1_dropShadow_2544_28"/>
<feBlend mode="normal" in="SourceGraphic" in2="effect1_dropShadow_2544_28" result="shape"/>
</filter>
<filter id="filter1_d_2544_28" x="-15.5246" y="594.409" width="49.5834" height="49.1508" filterUnits="userSpaceOnUse" color-interpolation-filters="sRGB">
<feFlood flood-opacity="0" result="BackgroundImageFix"/>
<feColorMatrix in="SourceAlpha" type="matrix" values="0 0 0 0 0 0 0 0 0 0 0 0 0 0 0 0 0 0 127 0" result="hardAlpha"/>
<feOffset dy="23.2258"/>
<feGaussianBlur stdDeviation="11.6129"/>
<feComposite in2="hardAlpha" operator="out"/>
<feColorMatrix type="matrix" values="0 0 0 0 0 0 0 0 0 0 0 0 0 0 0 0 0 0 0.25 0"/>
<feBlend mode="normal" in2="BackgroundImageFix" result="effect1_dropShadow_2544_28"/>
<feBlend mode="normal" in="SourceGraphic" in2="effect1_dropShadow_2544_28" result="shape"/>
</filter>
<filter id="filter2_d_2544_28" x="-22.0625" y="592.034" width="52.5708" height="51.6108" filterUnits="userSpaceOnUse" color-interpolation-filters="sRGB">
<feFlood flood-opacity="0" result="BackgroundImageFix"/>
<feColorMatrix in="SourceAlpha" type="matrix" values="0 0 0 0 0 0 0 0 0 0 0 0 0 0 0 0 0 0 127 0" result="hardAlpha"/>
<feOffset dy="23.2258"/>
<feGaussianBlur stdDeviation="11.6129"/>
<feComposite in2="hardAlpha" operator="out"/>
<feColorMatrix type="matrix" values="0 0 0 0 0 0 0 0 0 0 0 0 0 0 0 0 0 0 0.25 0"/>
<feBlend mode="normal" in2="BackgroundImageFix" result="effect1_dropShadow_2544_28"/>
<feBlend mode="normal" in="SourceGraphic" in2="effect1_dropShadow_2544_28" result="shape"/>
</filter>
<filter id="filter3_d_2544_28" x="-18.5735" y="590.816" width="52.549" height="50.7163" filterUnits="userSpaceOnUse" color-interpolation-filters="sRGB">
<feFlood flood-opacity="0" result="BackgroundImageFix"/>
<feColorMatrix in="SourceAlpha" type="matrix" values="0 0 0 0 0 0 0 0 0 0 0 0 0 0 0 0 0 0 127 0" result="hardAlpha"/>
<feOffset dy="23.2258"/>
<feGaussianBlur stdDeviation="11.6129"/>
<feComposite in2="hardAlpha" operator="out"/>
<feColorMatrix type="matrix" values="0 0 0 0 0 0 0 0 0 0 0 0 0 0 0 0 0 0 0.25 0"/>
<feBlend mode="normal" in2="BackgroundImageFix" result="effect1_dropShadow_2544_28"/>
<feBlend mode="normal" in="SourceGraphic" in2="effect1_dropShadow_2544_28" result="shape"/>
</filter>
<filter id="filter4_d_2544_28" x="753.032" y="138.603" width="1255.79" height="397.137" filterUnits="userSpaceOnUse" color-interpolation-filters="sRGB">
<feFlood flood-opacity="0" result="BackgroundImageFix"/>
<feColorMatrix in="SourceAlpha" type="matrix" values="0 0 0 0 0 0 0 0 0 0 0 0 0 0 0 0 0 0 127 0" result="hardAlpha"/>
<feOffset dy="19.9101"/>
<feGaussianBlur stdDeviation="9.95504"/>
<feComposite in2="hardAlpha" operator="out"/>
<feColorMatrix type="matrix" values="0 0 0 0 0 0 0 0 0 0 0 0 0 0 0 0 0 0 0.25 0"/>
<feBlend mode="normal" in2="BackgroundImageFix" result="effect1_dropShadow_2544_28"/>
<feBlend mode="normal" in="SourceGraphic" in2="effect1_dropShadow_2544_28" result="shape"/>
</filter>
<clipPath id="clip0_2544_28">
<rect width="2907" height="600" fill="white"/>
</clipPath>
<clipPath id="clip1_2544_28">
<rect width="12" height="12" fill="white" transform="translate(0 588)"/>
</clipPath>
</defs>
</svg>
